<mxfile host="app.diagrams.net" modified="2023-09-20T11:41:58.619Z" agent="Mozilla/5.0 (Windows NT 10.0; Win64; x64) AppleWebKit/537.36 (KHTML, like Gecko) Chrome/116.0.0.0 Safari/537.36" etag="myn3ZpXuKF_WqwRR079N" version="21.7.5" type="device">
  <diagram name="Page-1" id="2YBvvXClWsGukQMizWep">
    <mxGraphModel dx="1035" dy="525" grid="1" gridSize="9" guides="1" tooltips="1" connect="1" arrows="1" fold="1" page="1" pageScale="1" pageWidth="850" pageHeight="1100" math="0" shadow="0">
      <root>
        <mxCell id="0" />
        <mxCell id="1" parent="0" />
        <mxCell id="aM9ryv3xv72pqoxQDRHE-1" value="Client" style="shape=umlLifeline;perimeter=lifelinePerimeter;whiteSpace=wrap;html=1;container=0;dropTarget=0;collapsible=0;recursiveResize=0;outlineConnect=0;portConstraint=eastwest;newEdgeStyle={&quot;edgeStyle&quot;:&quot;elbowEdgeStyle&quot;,&quot;elbow&quot;:&quot;vertical&quot;,&quot;curved&quot;:0,&quot;rounded&quot;:0};" parent="1" vertex="1">
          <mxGeometry x="130" y="154" width="100" height="627" as="geometry" />
        </mxCell>
        <mxCell id="aM9ryv3xv72pqoxQDRHE-2" value="" style="html=1;points=[];perimeter=orthogonalPerimeter;outlineConnect=0;targetShapes=umlLifeline;portConstraint=eastwest;newEdgeStyle={&quot;edgeStyle&quot;:&quot;elbowEdgeStyle&quot;,&quot;elbow&quot;:&quot;vertical&quot;,&quot;curved&quot;:0,&quot;rounded&quot;:0};" parent="aM9ryv3xv72pqoxQDRHE-1" vertex="1">
          <mxGeometry x="45" y="70" width="10" height="557" as="geometry" />
        </mxCell>
        <mxCell id="aM9ryv3xv72pqoxQDRHE-3" value="dispatch" style="html=1;verticalAlign=bottom;startArrow=oval;endArrow=block;startSize=8;edgeStyle=elbowEdgeStyle;elbow=vertical;curved=0;rounded=0;" parent="aM9ryv3xv72pqoxQDRHE-1" target="aM9ryv3xv72pqoxQDRHE-2" edge="1">
          <mxGeometry relative="1" as="geometry">
            <mxPoint x="-15" y="70" as="sourcePoint" />
          </mxGeometry>
        </mxCell>
        <mxCell id="aM9ryv3xv72pqoxQDRHE-4" value="" style="html=1;points=[];perimeter=orthogonalPerimeter;outlineConnect=0;targetShapes=umlLifeline;portConstraint=eastwest;newEdgeStyle={&quot;edgeStyle&quot;:&quot;elbowEdgeStyle&quot;,&quot;elbow&quot;:&quot;vertical&quot;,&quot;curved&quot;:0,&quot;rounded&quot;:0};" parent="aM9ryv3xv72pqoxQDRHE-1" vertex="1">
          <mxGeometry x="50" y="120" width="10" height="137" as="geometry" />
        </mxCell>
        <mxCell id="aM9ryv3xv72pqoxQDRHE-5" value="Server" style="shape=umlLifeline;perimeter=lifelinePerimeter;whiteSpace=wrap;html=1;container=0;dropTarget=0;collapsible=0;recursiveResize=0;outlineConnect=0;portConstraint=eastwest;newEdgeStyle={&quot;edgeStyle&quot;:&quot;elbowEdgeStyle&quot;,&quot;elbow&quot;:&quot;vertical&quot;,&quot;curved&quot;:0,&quot;rounded&quot;:0};fillColor=#f5f5f5;strokeColor=#666666;fontColor=#333333;" parent="1" vertex="1">
          <mxGeometry x="500" y="154" width="100" height="627" as="geometry" />
        </mxCell>
        <mxCell id="aM9ryv3xv72pqoxQDRHE-6" value="" style="html=1;points=[];perimeter=orthogonalPerimeter;outlineConnect=0;targetShapes=umlLifeline;portConstraint=eastwest;newEdgeStyle={&quot;edgeStyle&quot;:&quot;elbowEdgeStyle&quot;,&quot;elbow&quot;:&quot;vertical&quot;,&quot;curved&quot;:0,&quot;rounded&quot;:0};" parent="aM9ryv3xv72pqoxQDRHE-5" vertex="1">
          <mxGeometry x="45" y="80" width="10" height="547" as="geometry" />
        </mxCell>
        <mxCell id="aM9ryv3xv72pqoxQDRHE-7" value="server&amp;nbsp; hello" style="html=1;verticalAlign=bottom;endArrow=block;edgeStyle=elbowEdgeStyle;elbow=horizontal;curved=0;rounded=0;" parent="1" source="aM9ryv3xv72pqoxQDRHE-2" target="aM9ryv3xv72pqoxQDRHE-6" edge="1">
          <mxGeometry x="0.0278" relative="1" as="geometry">
            <mxPoint x="195" y="234" as="sourcePoint" />
            <Array as="points">
              <mxPoint x="370" y="354" />
            </Array>
            <mxPoint as="offset" />
          </mxGeometry>
        </mxCell>
        <mxCell id="aM9ryv3xv72pqoxQDRHE-8" value="certificates" style="html=1;verticalAlign=bottom;endArrow=open;dashed=1;endSize=8;edgeStyle=elbowEdgeStyle;elbow=vertical;curved=0;rounded=0;" parent="1" source="aM9ryv3xv72pqoxQDRHE-6" target="aM9ryv3xv72pqoxQDRHE-2" edge="1">
          <mxGeometry x="-0.0286" y="-5" relative="1" as="geometry">
            <mxPoint x="195" y="309" as="targetPoint" />
            <Array as="points">
              <mxPoint x="190" y="384" />
            </Array>
            <mxPoint as="offset" />
          </mxGeometry>
        </mxCell>
        <mxCell id="1_ZQMiGHFUYt3WeTWLkC-4" value="" style="endArrow=classic;html=1;rounded=0;" edge="1" parent="1" source="aM9ryv3xv72pqoxQDRHE-2" target="aM9ryv3xv72pqoxQDRHE-5">
          <mxGeometry width="50" height="50" relative="1" as="geometry">
            <mxPoint x="300" y="444" as="sourcePoint" />
            <mxPoint x="239.9999999999999" y="424" as="targetPoint" />
            <Array as="points">
              <mxPoint x="360" y="414" />
            </Array>
          </mxGeometry>
        </mxCell>
        <mxCell id="1_ZQMiGHFUYt3WeTWLkC-6" style="edgeStyle=orthogonalEdgeStyle;rounded=0;orthogonalLoop=1;jettySize=auto;html=1;exitX=0.5;exitY=1;exitDx=0;exitDy=0;" edge="1" parent="1">
          <mxGeometry relative="1" as="geometry">
            <mxPoint x="380" y="434" as="sourcePoint" />
            <mxPoint x="380" y="434" as="targetPoint" />
          </mxGeometry>
        </mxCell>
        <mxCell id="1_ZQMiGHFUYt3WeTWLkC-7" value="acknowledgement" style="html=1;verticalAlign=bottom;endArrow=open;dashed=1;endSize=8;edgeStyle=elbowEdgeStyle;elbow=vertical;curved=0;rounded=0;" edge="1" parent="1">
          <mxGeometry x="-0.0556" y="-60" relative="1" as="geometry">
            <mxPoint x="180" y="474" as="targetPoint" />
            <Array as="points">
              <mxPoint x="185" y="474" />
            </Array>
            <mxPoint x="540" y="474" as="sourcePoint" />
            <mxPoint as="offset" />
          </mxGeometry>
        </mxCell>
        <mxCell id="1_ZQMiGHFUYt3WeTWLkC-8" value="change cipher text" style="text;strokeColor=none;align=center;fillColor=none;html=1;verticalAlign=middle;whiteSpace=wrap;rounded=0;fontSize=9;" vertex="1" parent="1">
          <mxGeometry x="315" y="454" width="105" height="77" as="geometry" />
        </mxCell>
        <mxCell id="1_ZQMiGHFUYt3WeTWLkC-9" value="" style="endArrow=classic;html=1;rounded=0;" edge="1" parent="1">
          <mxGeometry width="50" height="50" relative="1" as="geometry">
            <mxPoint x="185" y="444" as="sourcePoint" />
            <mxPoint x="550" y="444" as="targetPoint" />
            <Array as="points" />
          </mxGeometry>
        </mxCell>
        <mxCell id="1_ZQMiGHFUYt3WeTWLkC-10" value="client key Exchange" style="text;strokeColor=none;align=center;fillColor=none;html=1;verticalAlign=top;whiteSpace=wrap;rounded=0;fontSize=10;" vertex="1" parent="1">
          <mxGeometry x="320" y="424" width="105" height="87" as="geometry" />
        </mxCell>
        <mxCell id="1_ZQMiGHFUYt3WeTWLkC-11" value="" style="endArrow=classic;html=1;rounded=0;" edge="1" parent="1">
          <mxGeometry width="50" height="50" relative="1" as="geometry">
            <mxPoint x="185" y="504" as="sourcePoint" />
            <mxPoint x="550" y="504" as="targetPoint" />
            <Array as="points" />
          </mxGeometry>
        </mxCell>
        <mxCell id="1_ZQMiGHFUYt3WeTWLkC-12" value="client finished" style="text;strokeColor=none;align=center;fillColor=none;html=1;verticalAlign=middle;whiteSpace=wrap;rounded=0;fontSize=9;" vertex="1" parent="1">
          <mxGeometry x="315" y="484" width="105" height="77" as="geometry" />
        </mxCell>
        <mxCell id="1_ZQMiGHFUYt3WeTWLkC-13" value="acknowledgement" style="html=1;verticalAlign=bottom;endArrow=open;dashed=1;endSize=8;edgeStyle=elbowEdgeStyle;elbow=vertical;curved=0;rounded=0;" edge="1" parent="1">
          <mxGeometry x="-0.0556" y="-60" relative="1" as="geometry">
            <mxPoint x="180" y="534" as="targetPoint" />
            <Array as="points">
              <mxPoint x="185" y="534" />
            </Array>
            <mxPoint x="540" y="534" as="sourcePoint" />
            <mxPoint as="offset" />
          </mxGeometry>
        </mxCell>
        <mxCell id="1_ZQMiGHFUYt3WeTWLkC-14" value="acknowledgement" style="text;strokeColor=none;align=center;fillColor=none;html=1;verticalAlign=middle;whiteSpace=wrap;rounded=0;fontSize=9;" vertex="1" parent="1">
          <mxGeometry x="315" y="514" width="105" height="77" as="geometry" />
        </mxCell>
        <mxCell id="1_ZQMiGHFUYt3WeTWLkC-16" value="" style="endArrow=classic;html=1;rounded=0;" edge="1" parent="1">
          <mxGeometry width="50" height="50" relative="1" as="geometry">
            <mxPoint x="185" y="574" as="sourcePoint" />
            <mxPoint x="550" y="574" as="targetPoint" />
            <Array as="points" />
          </mxGeometry>
        </mxCell>
        <mxCell id="1_ZQMiGHFUYt3WeTWLkC-17" value="Application Data" style="text;strokeColor=none;align=center;fillColor=none;html=1;verticalAlign=top;whiteSpace=wrap;rounded=0;fontSize=10;" vertex="1" parent="1">
          <mxGeometry x="323.75" y="554" width="87.5" height="87" as="geometry" />
        </mxCell>
        <mxCell id="1_ZQMiGHFUYt3WeTWLkC-18" value="Database" style="shape=umlLifeline;perimeter=lifelinePerimeter;whiteSpace=wrap;html=1;container=0;dropTarget=0;collapsible=0;recursiveResize=0;outlineConnect=0;portConstraint=eastwest;newEdgeStyle={&quot;edgeStyle&quot;:&quot;elbowEdgeStyle&quot;,&quot;elbow&quot;:&quot;vertical&quot;,&quot;curved&quot;:0,&quot;rounded&quot;:0};fillColor=#f5f5f5;strokeColor=#666666;fontColor=#333333;" vertex="1" parent="1">
          <mxGeometry x="630" y="432" width="100" height="342" as="geometry" />
        </mxCell>
        <mxCell id="1_ZQMiGHFUYt3WeTWLkC-19" value="" style="html=1;points=[];perimeter=orthogonalPerimeter;outlineConnect=0;targetShapes=umlLifeline;portConstraint=eastwest;newEdgeStyle={&quot;edgeStyle&quot;:&quot;elbowEdgeStyle&quot;,&quot;elbow&quot;:&quot;vertical&quot;,&quot;curved&quot;:0,&quot;rounded&quot;:0};" vertex="1" parent="1_ZQMiGHFUYt3WeTWLkC-18">
          <mxGeometry x="45" y="80" width="10" height="262" as="geometry" />
        </mxCell>
        <mxCell id="1_ZQMiGHFUYt3WeTWLkC-20" value="" style="endArrow=classic;html=1;rounded=0;" edge="1" parent="1">
          <mxGeometry width="50" height="50" relative="1" as="geometry">
            <mxPoint x="560" y="584" as="sourcePoint" />
            <mxPoint x="679.4999999999998" y="584" as="targetPoint" />
            <Array as="points">
              <mxPoint x="590" y="584" />
              <mxPoint x="620" y="584" />
            </Array>
          </mxGeometry>
        </mxCell>
        <mxCell id="1_ZQMiGHFUYt3WeTWLkC-21" value="" style="edgeStyle=none;orthogonalLoop=1;jettySize=auto;html=1;rounded=0;" edge="1" parent="1" source="1_ZQMiGHFUYt3WeTWLkC-18" target="aM9ryv3xv72pqoxQDRHE-5">
          <mxGeometry width="80" relative="1" as="geometry">
            <mxPoint x="620" y="644" as="sourcePoint" />
            <mxPoint x="640" y="634" as="targetPoint" />
            <Array as="points">
              <mxPoint x="620" y="624" />
            </Array>
          </mxGeometry>
        </mxCell>
        <mxCell id="1_ZQMiGHFUYt3WeTWLkC-22" value="Data request" style="text;strokeColor=none;align=center;fillColor=none;html=1;verticalAlign=top;whiteSpace=wrap;rounded=0;fontSize=10;" vertex="1" parent="1">
          <mxGeometry x="550" y="564" width="120" height="87" as="geometry" />
        </mxCell>
        <mxCell id="1_ZQMiGHFUYt3WeTWLkC-23" value="Data&amp;nbsp; sent" style="text;strokeColor=none;align=center;fillColor=none;html=1;verticalAlign=top;whiteSpace=wrap;rounded=0;fontSize=10;" vertex="1" parent="1">
          <mxGeometry x="550" y="604" width="120" height="87" as="geometry" />
        </mxCell>
        <mxCell id="1_ZQMiGHFUYt3WeTWLkC-24" value="" style="endArrow=classic;rounded=0;html=1;dashed=1;" edge="1" parent="1">
          <mxGeometry width="50" height="50" relative="1" as="geometry">
            <mxPoint x="550" y="634" as="sourcePoint" />
            <mxPoint x="180.5" y="634" as="targetPoint" />
          </mxGeometry>
        </mxCell>
        <mxCell id="1_ZQMiGHFUYt3WeTWLkC-25" value="Server Data" style="text;strokeColor=none;align=center;fillColor=none;html=1;verticalAlign=top;whiteSpace=wrap;rounded=0;fontSize=10;" vertex="1" parent="1">
          <mxGeometry x="320" y="614" width="87.5" height="87" as="geometry" />
        </mxCell>
        <mxCell id="1_ZQMiGHFUYt3WeTWLkC-28" value="" style="endArrow=classic;html=1;rounded=0;" edge="1" parent="1">
          <mxGeometry width="50" height="50" relative="1" as="geometry">
            <mxPoint x="185" y="664" as="sourcePoint" />
            <mxPoint x="550" y="664" as="targetPoint" />
            <Array as="points" />
          </mxGeometry>
        </mxCell>
        <mxCell id="1_ZQMiGHFUYt3WeTWLkC-29" value="Connection Close" style="text;strokeColor=none;align=center;fillColor=none;html=1;verticalAlign=top;whiteSpace=wrap;rounded=0;fontSize=10;" vertex="1" parent="1">
          <mxGeometry x="323.75" y="644" width="87.5" height="87" as="geometry" />
        </mxCell>
        <mxCell id="1_ZQMiGHFUYt3WeTWLkC-30" value="" style="endArrow=classic;rounded=0;html=1;dashed=1;" edge="1" parent="1">
          <mxGeometry width="50" height="50" relative="1" as="geometry">
            <mxPoint x="557.25" y="684" as="sourcePoint" />
            <mxPoint x="187.75" y="684" as="targetPoint" />
          </mxGeometry>
        </mxCell>
        <mxCell id="1_ZQMiGHFUYt3WeTWLkC-31" value="Acknowledgement" style="text;strokeColor=none;align=center;fillColor=none;html=1;verticalAlign=top;whiteSpace=wrap;rounded=0;fontSize=10;" vertex="1" parent="1">
          <mxGeometry x="328.75" y="664" width="87.5" height="87" as="geometry" />
        </mxCell>
        <mxCell id="aM9ryv3xv72pqoxQDRHE-9" value="sent acknowledgement" style="html=1;verticalAlign=middle;endArrow=block;edgeStyle=elbowEdgeStyle;elbow=vertical;curved=0;rounded=0;" parent="1" source="aM9ryv3xv72pqoxQDRHE-4" target="aM9ryv3xv72pqoxQDRHE-6" edge="1">
          <mxGeometry x="-0.0411" y="-10" relative="1" as="geometry">
            <Array as="points">
              <mxPoint x="190" y="264" />
            </Array>
            <mxPoint x="175" y="264" as="targetPoint" />
            <mxPoint as="offset" />
          </mxGeometry>
        </mxCell>
        <mxCell id="aM9ryv3xv72pqoxQDRHE-10" value="returned acknowledgement" style="html=1;verticalAlign=bottom;endArrow=open;dashed=1;endSize=8;edgeStyle=elbowEdgeStyle;elbow=vertical;curved=0;rounded=0;" parent="1" source="aM9ryv3xv72pqoxQDRHE-6" target="aM9ryv3xv72pqoxQDRHE-4" edge="1">
          <mxGeometry x="-0.0423" relative="1" as="geometry">
            <Array as="points" />
            <mxPoint x="175" y="339" as="sourcePoint" />
            <mxPoint as="offset" />
          </mxGeometry>
        </mxCell>
        <mxCell id="1_ZQMiGHFUYt3WeTWLkC-33" value="&lt;font style=&quot;font-size: 16px;&quot;&gt;Simple SSl Handshake&lt;/font&gt;" style="text;strokeColor=none;align=center;fillColor=default;html=1;verticalAlign=middle;whiteSpace=wrap;rounded=0;gradientColor=none;strokeWidth=8;" vertex="1" parent="1">
          <mxGeometry x="255.25" y="840" width="234.5" height="60" as="geometry" />
        </mxCell>
      </root>
    </mxGraphModel>
  </diagram>
</mxfile>
